# xmcd
#
# Track frame offsets:
#	150
#	14037
#	29079
#	48637
#	68319
#	94063
#	115814
#	131286
#	151133
#	177660
#	190611
#
# Disc length: 2783 seconds
#
# Revision: 0
# Processed by: cddbd v1.5.2PL0 Copyright (c) Steve Scherf et al.
# Submitted via: EasyCDDAExtractor 12.0.4.1
#
DISCID=8e0add0b
DTITLE=Jealous Bone - I Ain´t Superstitious
DYEAR=2010
DGENRE=Blues Rock
TTITLE0=Rain On My Parade
TTITLE1=Down the Road
TTITLE2=Stay
TTITLE3=Superhero
TTITLE4=It Aint Happening
TTITLE5=Blood
TTITLE6=Better Way
TTITLE7=I Know What Im Talking About
TTITLE8=Make This Old Thing New 
TTITLE9=In the Mood 
TTITLE10=Lucky One
EXTD=
EXTT0=
EXTT1=
EXTT2=
EXTT3=
EXTT4=
EXTT5=
EXTT6=
EXTT7=
EXTT8=
EXTT9=
EXTT10=
PLAYORDER=
